<?xml version="1.0" encoding="UTF-8" standalone="no"?><svg xmlns="http://www.w3.org/2000/svg" xmlns:xlink="http://www.w3.org/1999/xlink" contentScriptType="application/ecmascript" contentStyleType="text/css" height="215px" preserveAspectRatio="none" style="width:416px;height:215px;background:#FFFFFF;" version="1.1" viewBox="0 0 416 215" width="416px" zoomAndPan="magnify"><defs><filter height="300%" id="f17h0j35jqqocv" width="300%" x="-1" y="-1"><feGaussianBlur result="blurOut" stdDeviation="2.0"/><feColorMatrix in="blurOut" result="blurOut2" type="matrix" values="0 0 0 0 0 0 0 0 0 0 0 0 0 0 0 0 0 0 .4 0"/><feOffset dx="4.0" dy="4.0" in="blurOut2" result="blurOut3"/><feBlend in="SourceGraphic" in2="blurOut3" mode="normal"/></filter></defs><g><!--MD5=[0bb20b103ca4ce6dd878443f6e1c65b1]
class HttpResponseEncoder::Result--><rect codeLine="1" fill="#FEFECE" filter="url(#f17h0j35jqqocv)" height="48" id="HttpResponseEncoder::Result" style="stroke:#A80036;stroke-width:1.5;" width="220" x="83" y="153.41"/><ellipse cx="98" cy="169.41" fill="#ADD1B2" rx="11" ry="11" style="stroke:#A80036;stroke-width:1.0;"/><path d="M100.9688,175.0506 Q100.3906,175.3475 99.75,175.4881 Q99.1094,175.6444 98.4063,175.6444 Q95.9063,175.6444 94.5781,174.0038 Q93.2656,172.3475 93.2656,169.2225 Q93.2656,166.0975 94.5781,164.4413 Q95.9063,162.785 98.4063,162.785 Q99.1094,162.785 99.75,162.9413 Q100.4063,163.0975 100.9688,163.3944 L100.9688,166.1131 Q100.3438,165.535 99.75,165.2694 Q99.1563,164.9881 98.5313,164.9881 Q97.1875,164.9881 96.5,166.0663 Q95.8125,167.1288 95.8125,169.2225 Q95.8125,171.3163 96.5,172.3944 Q97.1875,173.4569 98.5313,173.4569 Q99.1563,173.4569 99.75,173.1913 Q100.3438,172.91 100.9688,172.3319 L100.9688,175.0506 Z " fill="#000000"/><text fill="#000000" font-family="sans-serif" font-size="12" lengthAdjust="spacing" textLength="188" x="112" y="173.5643">HttpResponseEncoder::Result</text><line style="stroke:#A80036;stroke-width:1.5;" x1="84" x2="302" y1="185.41" y2="185.41"/><line style="stroke:#A80036;stroke-width:1.5;" x1="84" x2="302" y1="193.41" y2="193.41"/><!--MD5=[920259ec8f21af13155ba806a5215ff5]
class HttpEncoder::Result--><rect codeLine="3" fill="#FEFECE" filter="url(#f17h0j35jqqocv)" height="48" id="HttpEncoder::Result" style="stroke:#A80036;stroke-width:1.5;" width="158" x="7" y="26.2"/><ellipse cx="22" cy="42.2" fill="#ADD1B2" rx="11" ry="11" style="stroke:#A80036;stroke-width:1.0;"/><path d="M24.9688,47.8406 Q24.3906,48.1375 23.75,48.2781 Q23.1094,48.4344 22.4063,48.4344 Q19.9063,48.4344 18.5781,46.7937 Q17.2656,45.1375 17.2656,42.0125 Q17.2656,38.8875 18.5781,37.2312 Q19.9063,35.575 22.4063,35.575 Q23.1094,35.575 23.75,35.7312 Q24.4063,35.8875 24.9688,36.1844 L24.9688,38.9031 Q24.3438,38.325 23.75,38.0594 Q23.1563,37.7781 22.5313,37.7781 Q21.1875,37.7781 20.5,38.8562 Q19.8125,39.9187 19.8125,42.0125 Q19.8125,44.1062 20.5,45.1844 Q21.1875,46.2469 22.5313,46.2469 Q23.1563,46.2469 23.75,45.9812 Q24.3438,45.7 24.9688,45.1219 L24.9688,47.8406 Z " fill="#000000"/><text fill="#000000" font-family="sans-serif" font-size="12" lengthAdjust="spacing" textLength="126" x="36" y="46.3543">HttpEncoder::Result</text><line style="stroke:#A80036;stroke-width:1.5;" x1="8" x2="164" y1="58.2" y2="58.2"/><line style="stroke:#A80036;stroke-width:1.5;" x1="8" x2="164" y1="66.2" y2="66.2"/><!--MD5=[dcf9830fec92cfb519bbce3ee53365f7]
class Codec::ProtocolSwitchResult--><rect codeLine="5" fill="#FEFECE" filter="url(#f17h0j35jqqocv)" height="86.4141" id="Codec::ProtocolSwitchResult" style="stroke:#A80036;stroke-width:1.5;" width="202" x="200" y="7"/><ellipse cx="215" cy="23" fill="#B4A7E5" rx="11" ry="11" style="stroke:#A80036;stroke-width:1.0;"/><path d="M210.9219,18.7656 L210.9219,16.6094 L218.3125,16.6094 L218.3125,18.7656 L215.8438,18.7656 L215.8438,26.8438 L218.3125,26.8438 L218.3125,29 L210.9219,29 L210.9219,26.8438 L213.3906,26.8438 L213.3906,18.7656 L210.9219,18.7656 Z " fill="#000000"/><text fill="#000000" font-family="sans-serif" font-size="12" font-style="italic" lengthAdjust="spacing" textLength="170" x="229" y="27.1543">Codec::ProtocolSwitchResult</text><line style="stroke:#A80036;stroke-width:1.5;" x1="201" x2="401" y1="39" y2="39"/><line style="stroke:#A80036;stroke-width:1.5;" x1="201" x2="401" y1="47" y2="47"/><text fill="#000000" font-family="sans-serif" font-size="11" lengthAdjust="spacing" textLength="121" x="206" y="61.2104">newProtocol() : String</text><text fill="#000000" font-family="sans-serif" font-size="11" lengthAdjust="spacing" textLength="157" x="206" y="74.0151">newEncoder() : Encoder&lt;?&gt;</text><text fill="#000000" font-family="sans-serif" font-size="11" lengthAdjust="spacing" textLength="172" x="206" y="86.8198">newDecoder() : Decoder&lt;?, ?&gt;</text><!--MD5=[6db6fdd3eec25555a329ac6f43df57b8]
reverse link HttpEncoder::Result to HttpResponseEncoder::Result--><path codeLine="11" d="M119.42,90.31 C137.08,110.98 158.17,135.65 173.23,153.28 " fill="none" id="HttpEncoder::Result-backto-HttpResponseEncoder::Result" style="stroke:#A80036;stroke-width:1.0;"/><polygon fill="none" points="113.55,95.21,105.88,75.46,124.19,86.12,113.55,95.21" style="stroke:#A80036;stroke-width:1.0;"/><!--MD5=[87a0e5284e4cecec39caba13bd7453ca]
reverse link Codec::ProtocolSwitchResult to HttpResponseEncoder::Result--><path codeLine="13" d="M250.8,109.4 C237.47,124.85 223.83,140.66 213.16,153.04 " fill="none" id="Codec::ProtocolSwitchResult-backto-HttpResponseEncoder::Result" style="stroke:#A80036;stroke-width:1.0;stroke-dasharray:7.0,7.0;"/><polygon fill="none" points="246.07,105.16,264.44,94.59,256.67,114.31,246.07,105.16" style="stroke:#A80036;stroke-width:1.0;"/><!--MD5=[f0eefd67a1b00077150fae12b18fb4a1]
@startuml
class HttpResponseEncoder::Result
 
 class HttpEncoder::Result
 
 interface Codec::ProtocolSwitchResult {
     newProtocol() : String
     newEncoder() : Encoder<?>        
     newDecoder() : Decoder<?, ?>
 }
 
 HttpEncoder::Result <|- - HttpResponseEncoder::Result
 
 Codec::ProtocolSwitchResult <|.. HttpResponseEncoder::Result
@enduml

PlantUML version 1.2022.1(Tue Feb 01 19:19:58 CET 2022)
(GPL source distribution)
Java Runtime: OpenJDK Runtime Environment
JVM: OpenJDK 64-Bit Server VM
Default Encoding: UTF-8
Language: de
Country: DE
--></g></svg>